<svg xmlns="http://www.w3.org/2000/svg" xmlns:xlink="http://www.w3.org/1999/xlink" width="225.964" height="140.42" viewBox="0 0 225.964 140.42">
  <defs>
    <clipPath id="clip-path">
      <path id="Path_18" data-name="Path 18" d="M122.655,105.948v-70.2L61.852.64,1.05,35.752v70.2l60.8,35.112Z" transform="translate(-1.05 -0.64)"/>
    </clipPath>
  </defs>
  <g id="A211108_UAC_High-Point-Park_LOGO_white-02" transform="translate(-1.05 -0.64)">
    <g id="Group_4" data-name="Group 4" transform="translate(136.818 38.508)">
      <path id="Path_1" data-name="Path 1" d="M46.87,13.56h3.911V21.5H61.448V13.56H65.36V33.087H61.448V25.116H50.781v7.971H46.87Z" transform="translate(-46.87 -13.145)" fill="#fff"/>
      <path id="Path_2" data-name="Path 2" d="M58.191,33.077H54.28V13.55h3.911Z" transform="translate(-32.324 -13.165)" fill="#fff"/>
      <path id="Path_3" data-name="Path 3" d="M67.087,30.132a6.034,6.034,0,0,0,6.074-4.445H66.88V22.428H77.665v10.9H74.139l-.3-2.607a9.692,9.692,0,0,1-7.26,3.052A9.907,9.907,0,0,1,56.42,23.613c0-5.9,4.385-10.193,10.43-10.193,4.978,0,8.889,2.845,10.163,7.348H73.1a6.6,6.6,0,0,0-6.282-3.733,6.286,6.286,0,0,0-6.489,6.608A6.392,6.392,0,0,0,67.087,30.132Z" transform="translate(-28.123 -13.42)" fill="#fff"/>
      <path id="Path_4" data-name="Path 4" d="M64.64,13.56h3.911V21.5H79.218V13.56H83.13V33.087H79.218V25.116H68.551v7.971H64.64Z" transform="translate(-11.986 -13.145)" fill="#fff"/>
      <path id="Path_5" data-name="Path 5" d="M46.87,22.11h9.986c4.178,0,7.7,2.756,7.7,6.9,0,3.941-3.7,6.9-7.7,6.9H50.781v5.689H46.87Zm9.986,3.615H50.781V32.3h6.074a3.508,3.508,0,0,0,3.793-3.259C60.648,27.118,59.019,25.725,56.856,25.725Z" transform="translate(-46.87 3.639)" fill="#fff"/>
      <path id="Path_6" data-name="Path 6" d="M64.167,21.97c6.1,0,10.667,4.089,10.667,10.193,0,6.015-4.563,10.163-10.667,10.163s-10.7-4.356-10.7-10.163C53.44,26.3,58.033,21.97,64.167,21.97Zm0,16.623c4.03,0,6.785-2.637,6.785-6.4,0-3.852-2.726-6.459-6.785-6.459-4,0-6.815,2.608-6.815,6.459C57.352,35.956,60.2,38.593,64.167,38.593Z" transform="translate(-33.914 3.364)" fill="#fff"/>
      <path id="Path_7" data-name="Path 7" d="M65.491,41.637H61.58V22.11h3.911Z" transform="translate(-17.993 3.639)" fill="#fff"/>
      <path id="Path_8" data-name="Path 8" d="M68.011,41.637H64.1V22.11h3.111L79.33,35.059V22.11h3.911V41.637H80.1L68.011,28.629Z" transform="translate(-13.046 3.639)" fill="#fff"/>
      <path id="Path_9" data-name="Path 9" d="M78.244,25.705h-6.9V22.12H89.03v3.585H82.185V41.617H78.274V25.705Z" transform="translate(1.166 3.659)" fill="#fff"/>
      <path id="Path_10" data-name="Path 10" d="M46.87,30.67h9.986c4.178,0,7.7,2.756,7.7,6.9,0,3.941-3.7,6.9-7.7,6.9H50.781v5.689H46.87Zm9.986,3.585H50.781v6.578h6.074a3.508,3.508,0,0,0,3.793-3.259C60.648,35.648,59.019,34.255,56.856,34.255Z" transform="translate(-46.87 20.443)" fill="#fff"/>
      <path id="Path_11" data-name="Path 11" d="M62.348,30.67H66.7L76.541,50.2H72.185L69.874,45.6H59.207l-2.341,4.563H52.54Zm5.689,11.349L64.511,35l-3.556,7.022Z" transform="translate(-35.739 20.443)" fill="#fff"/>
      <path id="Path_12" data-name="Path 12" d="M70.285,44.5h-5.3v5.689H61.07V30.66H71.115c4.178,0,7.645,2.756,7.645,6.9a6.96,6.96,0,0,1-4.208,6.163l4.919,6.43H74.611Zm.859-10.223H65.011v6.578h6.134a3.315,3.315,0,1,0,0-6.578Z" transform="translate(-18.994 20.423)" fill="#fff"/>
      <path id="Path_13" data-name="Path 13" d="M71.771,50.187H67.86V30.66h3.911v7.971h2.222l7.615-7.971h5.3l-9.245,9.749,9.986,9.749H82.2l-8.267-7.971H71.8v8Z" transform="translate(-5.665 20.423)" fill="#fff"/>
    </g>
    <g id="Group_6" data-name="Group 6" transform="translate(1.05 0.64)">
      <g id="Group_5" data-name="Group 5" clip-path="url(#clip-path)">
        <rect id="Rectangle_4" data-name="Rectangle 4" width="12.623" height="150.761" transform="translate(0 -5.156)" fill="#fff"/>
        <path id="Path_14" data-name="Path 14" d="M8.41,72.058l12.623-7.289V-1.1H8.41Z" transform="translate(13.398 -4.056)" fill="#fff"/>
        <path id="Path_15" data-name="Path 15" d="M8.41,98.788H21.033V24.8L8.41,32.089Z" transform="translate(13.398 46.788)" fill="#fff"/>
        <path id="Path_16" data-name="Path 16" d="M50.191-1.1V74.488L37.568,67.2V-1.1ZM15.76,149.632H28.383V-1.1H15.76Z" transform="translate(27.827 -4.056)" fill="#27d1ca"/>
        <rect id="Rectangle_5" data-name="Rectangle 5" width="12.623" height="150.761" transform="translate(87.174 -5.156)" fill="#fff"/>
        <path id="Path_17" data-name="Path 17" d="M37.83-1.1V88.681L50.453,95.97V-1.1Z" transform="translate(71.152 -4.056)" fill="#fff"/>
      </g>
    </g>
  </g>
</svg>
