<svg xmlns="http://www.w3.org/2000/svg" width="352.526" height="57.481" viewBox="0 0 352.526 57.481">
  <g id="Union-allied-logo" transform="translate(-17 -18.6)">
    <g id="Group_46" data-name="Group 46" transform="translate(17 18.6)">
      <path id="Path_66" data-name="Path 66" d="M33.4,59.261c-9.4,0-16.4-4.72-16.4-16V20.34H28.4V43.42c0,4.24,1.96,6.44,5.16,6.44,3.44,0,5.12-2.32,5.12-6.36V20.3h11.4V43.22C50.121,54.421,42.72,59.261,33.4,59.261Z" transform="translate(-17 -19.62)" fill="#fff"/>
      <path id="Path_67" data-name="Path 67" d="M136.82,58.761,124.26,38.72v20.04H113.7V20.4h11.24l11.44,18.36V20.4h10.56V58.761Z" transform="translate(-75.019 -19.68)" fill="#fff"/>
      <path id="Path_68" data-name="Path 68" d="M212.2,58.761V20.4h11.4V58.761Z" transform="translate(-134.119 -19.68)" fill="#fff"/>
      <path id="Path_69" data-name="Path 69" d="M271.46,58.4c-11.16,0-18.56-8-18.56-19.84,0-11.92,7.4-19.96,18.68-19.96,11.24,0,18.56,8,18.56,19.84S282.741,58.4,271.46,58.4Zm.04-31.2c-4.68,0-7.28,4.4-7.28,11.28s2.6,11.28,7.28,11.28,7.28-4.4,7.28-11.28S276.18,27.2,271.5,27.2Z" transform="translate(-158.538 -18.6)" fill="#fff"/>
      <path id="Path_70" data-name="Path 70" d="M380.82,58.761,368.26,38.72v20.04H357.7V20.4h11.24l11.44,18.36V20.4h10.56V58.761Z" transform="translate(-221.418 -19.68)" fill="#fff"/>
      <path id="Path_71" data-name="Path 71" d="M476.3,58.861l-2.24-6.84h-12l-1.96,6.44h-11L462.34,19.9h12.72l12.72,37.161Zm-8.24-27.6-3.6,12.12h7.12Z" transform="translate(-276.257 -19.38)" fill="#fff"/>
      <path id="Path_72" data-name="Path 72" d="M554.2,58.761V20.4h11.4V49.08h10.84l1.56,9.68Z" transform="translate(-339.316 -19.68)" fill="#fff"/>
      <path id="Path_73" data-name="Path 73" d="M622.8,58.761V20.4h11.4V49.08h10.84l1.56,9.68Z" transform="translate(-380.476 -19.68)" fill="#fff"/>
      <path id="Path_74" data-name="Path 74" d="M691.7,58.761V20.4h11.4V58.761Z" transform="translate(-421.815 -19.68)" fill="#fff"/>
      <path id="Path_75" data-name="Path 75" d="M735.7,58.761V20.4h25.32v8.84h-14.2v5.24h10.72l1.44,9.16H746.82v6.28H761.5v8.84Z" transform="translate(-448.215 -19.68)" fill="#fff"/>
      <path id="Path_76" data-name="Path 76" d="M826.56,58.761H812V20.4h14.12c13.36,0,20.4,7.68,20.4,19.12C846.521,50.921,839.48,58.761,826.56,58.761Zm-.88-29.8h-2.32V50.2h2.4c5.8,0,9.4-3.04,9.4-10.64C835.12,32.16,831.24,28.96,825.68,28.96Z" transform="translate(-493.994 -19.68)" fill="#fff"/>
    </g>
    <g id="Group_47" data-name="Group 47" transform="translate(172.763 62.841)">
      <path id="Path_77" data-name="Path 77" d="M412.2,142.44c-3.48,0-5.8-2.68-5.8-6.6s2.36-6.64,5.88-6.64a6.394,6.394,0,0,1,3.6,1.08l-.2,1.28a5.8,5.8,0,0,0-3.4-1.24c-2.8,0-4.56,2.24-4.56,5.48,0,3.28,1.76,5.48,4.56,5.48a5.964,5.964,0,0,0,3.64-1.32l.2,1.24A7.131,7.131,0,0,1,412.2,142.44Z" transform="translate(-406.4 -129.2)" fill="#fff"/>
      <path id="Path_78" data-name="Path 78" d="M445.12,142.44l-1.64-4.28h-5.6l-1.56,4.12H435l5.04-12.88h1.32l5,12.72Zm-4.44-11.48-2.32,6.08h4.72Z" transform="translate(-423.56 -129.32)" fill="#fff"/>
      <path id="Path_79" data-name="Path 79" d="M472.28,137.1h-1.6v5.4H469.4V129.7h3.16c2.56,0,4.2,1.28,4.2,3.6C476.8,135.82,474.92,137.1,472.28,137.1Zm.2-6.28h-1.8v5.12h1.64c1.96,0,3.12-.84,3.12-2.64C475.48,131.66,474.44,130.82,472.48,130.82Z" transform="translate(-444.2 -129.5)" fill="#fff"/>
      <path id="Path_80" data-name="Path 80" d="M494.5,142.5V129.7h1.28v12.8Z" transform="translate(-459.259 -129.5)" fill="#fff"/>
      <path id="Path_81" data-name="Path 81" d="M509.34,130.86V142.5h-1.28V130.86H503.9V129.7h9.4l.2,1.16Z" transform="translate(-464.899 -129.5)" fill="#fff"/>
      <path id="Path_82" data-name="Path 82" d="M537.08,142.44l-1.64-4.28h-5.6l-1.56,4.12H527l5.04-12.88h1.32l5,12.72Zm-4.44-11.48-2.32,6.08H535Z" transform="translate(-478.759 -129.32)" fill="#fff"/>
      <path id="Path_83" data-name="Path 83" d="M561.4,142.5V129.7h1.28v11.64h4.92l.2,1.16Z" transform="translate(-499.399 -129.5)" fill="#fff"/>
      <path id="Path_84" data-name="Path 84" d="M597.8,142.44c-3.48,0-5.8-2.68-5.8-6.6s2.36-6.64,5.88-6.64a6.393,6.393,0,0,1,3.6,1.08l-.2,1.28a5.8,5.8,0,0,0-3.4-1.24c-2.8,0-4.56,2.24-4.56,5.48,0,3.28,1.76,5.48,4.56,5.48a5.964,5.964,0,0,0,3.64-1.32l.2,1.24A7.13,7.13,0,0,1,597.8,142.44Z" transform="translate(-517.759 -129.2)" fill="#fff"/>
      <path id="Path_85" data-name="Path 85" d="M626.06,142.44c-3.4,0-5.76-2.72-5.76-6.6,0-3.92,2.36-6.64,5.8-6.64s5.76,2.72,5.76,6.6S629.5,142.44,626.06,142.44Zm.04-12.12c-2.68,0-4.44,2.24-4.44,5.48,0,3.28,1.76,5.52,4.48,5.52s4.44-2.24,4.44-5.48C630.54,132.52,628.78,130.32,626.1,130.32Z" transform="translate(-534.738 -129.2)" fill="#fff"/>
      <path id="Path_86" data-name="Path 86" d="M664.7,142.28l-1.32.28-4.16-5.8h-1.64v5.64H656.3V129.6h3.28c2.52,0,4.08,1.28,4.08,3.48a3.411,3.411,0,0,1-3.04,3.48Zm-5.2-11.52h-1.92v4.92h1.72c1.88,0,3.08-.84,3.08-2.48C662.38,131.64,661.38,130.76,659.5,130.76Z" transform="translate(-556.338 -129.44)" fill="#fff"/>
      <path id="Path_87" data-name="Path 87" d="M685.48,137.1h-1.6v5.4H682.6V129.7h3.16c2.56,0,4.2,1.28,4.2,3.6C689.96,135.82,688.08,137.1,685.48,137.1Zm.2-6.28h-1.8v5.12h1.64c1.96,0,3.12-.84,3.12-2.64C688.64,131.66,687.6,130.82,685.68,130.82Z" transform="translate(-572.118 -129.5)" fill="#fff"/>
      <path id="Path_88" data-name="Path 88" d="M711.56,142.44c-3.4,0-5.76-2.72-5.76-6.6,0-3.92,2.36-6.64,5.8-6.64s5.76,2.72,5.76,6.6S715,142.44,711.56,142.44Zm.04-12.12c-2.68,0-4.44,2.24-4.44,5.48,0,3.28,1.76,5.52,4.48,5.52,2.68,0,4.44-2.24,4.44-5.48C716.04,132.52,714.28,130.32,711.6,130.32Z" transform="translate(-586.038 -129.2)" fill="#fff"/>
      <path id="Path_89" data-name="Path 89" d="M750.2,142.28l-1.28.28-4.16-5.8h-1.68v5.64H741.8V129.6h3.28c2.52,0,4.08,1.28,4.08,3.48a3.411,3.411,0,0,1-3.04,3.48ZM745,130.76h-1.92v4.92h1.72c1.88,0,3.08-.84,3.08-2.48C747.88,131.64,746.88,130.76,745,130.76Z" transform="translate(-607.638 -129.44)" fill="#fff"/>
      <path id="Path_90" data-name="Path 90" d="M775.78,142.44l-1.64-4.28h-5.6l-1.56,4.12H765.7l5.04-12.88h1.32l5,12.72Zm-4.44-11.48-2.32,6.08h4.72Z" transform="translate(-621.977 -129.32)" fill="#fff"/>
      <path id="Path_91" data-name="Path 91" d="M798.64,130.86V142.5h-1.28V130.86H793.2V129.7h9.4l.2,1.16Z" transform="translate(-638.477 -129.5)" fill="#fff"/>
      <path id="Path_92" data-name="Path 92" d="M823.2,142.5V129.7h1.28v12.8Z" transform="translate(-656.477 -129.5)" fill="#fff"/>
      <path id="Path_93" data-name="Path 93" d="M839.56,142.44c-3.4,0-5.76-2.72-5.76-6.6,0-3.92,2.36-6.64,5.8-6.64s5.76,2.72,5.76,6.6S843,142.44,839.56,142.44Zm.04-12.12c-2.68,0-4.44,2.24-4.44,5.48,0,3.28,1.8,5.52,4.48,5.52s4.44-2.24,4.44-5.48C844.04,132.52,842.28,130.32,839.6,130.32Z" transform="translate(-662.837 -129.2)" fill="#fff"/>
      <path id="Path_94" data-name="Path 94" d="M878.48,142.5,871,131.74V142.5h-1.2V129.7H871l7.24,10.44V129.7h1.2v12.8Z" transform="translate(-684.437 -129.5)" fill="#fff"/>
    </g>
  </g>
</svg>
