<svg xmlns="http://www.w3.org/2000/svg" width="293.252" height="47.816" viewBox="0 0 293.252 47.816">
  <g id="Union-allied-logo" transform="translate(-17 -18.6)">
    <g id="Group_40" data-name="Group 40" transform="translate(17 18.6)">
      <path id="Path_37" data-name="Path 37" d="M30.643,52.71C22.823,52.71,17,48.783,17,39.4V20.333h9.483v19.2c0,3.527,1.63,5.357,4.292,5.357,2.862,0,4.259-1.93,4.259-5.291V20.3h9.483V39.367C44.552,48.684,38.4,52.71,30.643,52.71Z" transform="translate(-17 -19.734)" fill="#757576"/>
      <path id="Path_38" data-name="Path 38" d="M132.933,52.311,122.485,35.64V52.311H113.7V20.4h9.35l9.517,15.273V20.4h8.785V52.311Z" transform="translate(-81.523 -19.801)" fill="#757576"/>
      <path id="Path_39" data-name="Path 39" d="M212.2,52.311V20.4h9.483V52.311Z" transform="translate(-147.247 -19.801)" fill="#757576"/>
      <path id="Path_40" data-name="Path 40" d="M268.34,51.709c-9.284,0-15.44-6.655-15.44-16.5,0-9.916,6.156-16.6,15.539-16.6,9.35,0,15.44,6.655,15.44,16.5S277.723,51.709,268.34,51.709Zm.033-25.954c-3.893,0-6.056,3.66-6.056,9.384s2.163,9.384,6.056,9.384,6.056-3.66,6.056-9.384S272.266,25.754,268.373,25.754Z" transform="translate(-174.404 -18.6)" fill="#757576"/>
      <path id="Path_41" data-name="Path 41" d="M376.933,52.311,366.485,35.64V52.311H357.7V20.4h9.35l9.517,15.273V20.4h8.785V52.311Z" transform="translate(-244.332 -19.801)" fill="#757576"/>
      <path id="Path_42" data-name="Path 42" d="M471.727,52.31l-1.863-5.69h-9.982l-1.63,5.357H449.1L460.114,19.9H470.7l10.581,30.912Zm-6.855-22.96-2.995,10.082H467.8Z" transform="translate(-305.319 -19.467)" fill="#029bd8"/>
      <path id="Path_43" data-name="Path 43" d="M554.2,52.311V20.4h9.483V44.258H572.7l1.3,8.053Z" transform="translate(-375.447 -19.801)" fill="#029bd8"/>
      <path id="Path_44" data-name="Path 44" d="M622.8,52.311V20.4h9.483V44.258H641.3l1.3,8.053Z" transform="translate(-421.22 -19.801)" fill="#029bd8"/>
      <path id="Path_45" data-name="Path 45" d="M691.7,52.311V20.4h9.483V52.311Z" transform="translate(-467.194 -19.801)" fill="#029bd8"/>
      <path id="Path_46" data-name="Path 46" d="M735.7,52.311V20.4h21.063v7.354H744.95v4.359h8.918l1.2,7.62H744.95v5.224h12.212v7.354H735.7Z" transform="translate(-496.553 -19.801)" fill="#029bd8"/>
      <path id="Path_47" data-name="Path 47" d="M824.112,52.311H812V20.4h11.746c11.114,0,16.97,6.389,16.97,15.905C840.716,45.789,834.86,52.311,824.112,52.311Zm-.732-24.79h-1.93V45.19h2c4.825,0,7.82-2.529,7.82-8.851C831.233,30.183,828.005,27.521,823.38,27.521Z" transform="translate(-547.464 -19.801)" fill="#029bd8"/>
    </g>
    <g id="Group_41" data-name="Group 41" transform="translate(146.573 55.402)">
      <path id="Path_48" data-name="Path 48" d="M411.225,140.214c-2.895,0-4.825-2.229-4.825-5.49s1.963-5.524,4.891-5.524a5.318,5.318,0,0,1,2.995.9l-.166,1.065a4.823,4.823,0,0,0-2.828-1.032c-2.329,0-3.793,1.863-3.793,4.559,0,2.729,1.464,4.559,3.793,4.559a4.962,4.962,0,0,0,3.028-1.1l.166,1.032A5.931,5.931,0,0,1,411.225,140.214Z" transform="translate(-406.4 -129.2)"/>
      <path id="Path_49" data-name="Path 49" d="M443.419,140.248l-1.364-3.56H437.4l-1.3,3.427H435l4.193-10.715h1.1l4.159,10.581Zm-3.694-9.55-1.93,5.058h3.926Z" transform="translate(-425.483 -129.333)"/>
      <path id="Path_50" data-name="Path 50" d="M471.8,135.856h-1.331v4.492H469.4V129.7h2.629c2.13,0,3.494,1.065,3.494,2.995C475.556,134.791,473.992,135.856,471.8,135.856Zm.166-5.224h-1.5v4.259h1.364c1.63,0,2.6-.7,2.6-2.2C474.458,131.33,473.593,130.632,471.962,130.632Z" transform="translate(-448.437 -129.534)"/>
      <path id="Path_51" data-name="Path 51" d="M494.5,140.348V129.7h1.065v10.648Z" transform="translate(-465.185 -129.534)"/>
      <path id="Path_52" data-name="Path 52" d="M508.425,130.665v9.683h-1.065v-9.683H503.9V129.7h7.82l.166.965Z" transform="translate(-471.457 -129.534)"/>
      <path id="Path_53" data-name="Path 53" d="M535.385,140.248l-1.364-3.56h-4.659l-1.3,3.427H527l4.193-10.715h1.1l4.159,10.581Zm-3.694-9.55-1.93,5.058h3.893Z" transform="translate(-486.87 -129.333)"/>
      <path id="Path_54" data-name="Path 54" d="M561.4,140.348V129.7h1.065v9.683h4.093l.166.965Z" transform="translate(-509.824 -129.534)"/>
      <path id="Path_55" data-name="Path 55" d="M596.825,140.214c-2.9,0-4.825-2.229-4.825-5.49s1.963-5.524,4.891-5.524a5.318,5.318,0,0,1,2.995.9l-.166,1.065a4.823,4.823,0,0,0-2.828-1.032c-2.329,0-3.793,1.863-3.793,4.559,0,2.729,1.464,4.559,3.793,4.559a4.962,4.962,0,0,0,3.028-1.1l.166,1.032A5.932,5.932,0,0,1,596.825,140.214Z" transform="translate(-530.242 -129.2)"/>
      <path id="Path_56" data-name="Path 56" d="M625.092,140.214c-2.828,0-4.792-2.263-4.792-5.49,0-3.261,1.963-5.524,4.825-5.524s4.792,2.263,4.792,5.49S627.953,140.214,625.092,140.214Zm.033-10.082c-2.229,0-3.694,1.863-3.694,4.559,0,2.729,1.464,4.592,3.727,4.592s3.693-1.863,3.693-4.559C628.818,131.962,627.354,130.132,625.125,130.132Z" transform="translate(-549.125 -129.2)"/>
      <path id="Path_57" data-name="Path 57" d="M663.288,140.148l-1.1.233-3.461-4.825h-1.364v4.692H656.3V129.6h2.729c2.1,0,3.394,1.065,3.394,2.895a2.837,2.837,0,0,1-2.529,2.895Zm-4.326-9.583h-1.6v4.093H658.8c1.564,0,2.562-.7,2.562-2.063C661.358,131.3,660.526,130.565,658.962,130.565Z" transform="translate(-573.146 -129.467)"/>
      <path id="Path_58" data-name="Path 58" d="M685,135.856h-1.331v4.492H682.6V129.7h2.629c2.13,0,3.494,1.065,3.494,2.995C688.723,134.791,687.159,135.856,685,135.856Zm.166-5.224h-1.5v4.259h1.364c1.63,0,2.6-.7,2.6-2.2C687.624,131.33,686.759,130.632,685.162,130.632Z" transform="translate(-590.695 -129.534)"/>
      <path id="Path_59" data-name="Path 59" d="M710.592,140.214c-2.828,0-4.792-2.263-4.792-5.49,0-3.261,1.963-5.524,4.825-5.524s4.792,2.263,4.792,5.49S713.453,140.214,710.592,140.214Zm.033-10.082c-2.229,0-3.694,1.863-3.694,4.559,0,2.729,1.464,4.592,3.727,4.592,2.229,0,3.694-1.863,3.694-4.559C714.318,131.962,712.854,130.132,710.625,130.132Z" transform="translate(-606.175 -129.2)"/>
      <path id="Path_60" data-name="Path 60" d="M748.788,140.148l-1.065.233-3.461-4.825h-1.4v4.692H741.8V129.6h2.729c2.1,0,3.394,1.065,3.394,2.895a2.837,2.837,0,0,1-2.529,2.895Zm-4.326-9.583h-1.6v4.093H744.3c1.564,0,2.562-.7,2.562-2.063C746.858,131.3,746.026,130.565,744.462,130.565Z" transform="translate(-630.196 -129.467)"/>
      <path id="Path_61" data-name="Path 61" d="M774.085,140.248l-1.364-3.56h-4.658l-1.3,3.427H765.7l4.193-10.715h1.1l4.159,10.581Zm-3.694-9.55-1.93,5.058h3.927Z" transform="translate(-646.143 -129.333)"/>
      <path id="Path_62" data-name="Path 62" d="M797.725,130.665v9.683H796.66v-9.683H793.2V129.7h7.82l.166.965Z" transform="translate(-664.492 -129.534)"/>
      <path id="Path_63" data-name="Path 63" d="M823.2,140.348V129.7h1.065v10.648Z" transform="translate(-684.51 -129.534)"/>
      <path id="Path_64" data-name="Path 64" d="M838.591,140.214c-2.828,0-4.792-2.263-4.792-5.49,0-3.261,1.963-5.524,4.825-5.524s4.792,2.263,4.792,5.49S841.453,140.214,838.591,140.214Zm.033-10.082c-2.229,0-3.694,1.863-3.694,4.559,0,2.729,1.5,4.592,3.727,4.592s3.693-1.863,3.693-4.559C842.318,131.962,840.854,130.132,838.625,130.132Z" transform="translate(-691.583 -129.2)"/>
      <path id="Path_65" data-name="Path 65" d="M877.021,140.348,870.8,131.4v8.951h-1V129.7h1l6.023,8.685V129.7h1v10.648Z" transform="translate(-715.604 -129.534)"/>
    </g>
  </g>
</svg>
