<?xml version="1.0" encoding="utf-8"?>
<!-- Generator: Adobe Illustrator 24.1.1, SVG Export Plug-In . SVG Version: 6.00 Build 0)  -->
<svg version="1.1" id="Layer_1" xmlns="http://www.w3.org/2000/svg" xmlns:xlink="http://www.w3.org/1999/xlink" x="0px" y="0px"
	 viewBox="0 0 907.6 172.2" style="enable-background:new 0 0 907.6 172.2;" xml:space="preserve">
<style type="text/css">
	.st0{fill:#757576;}
</style>
<g>
	<path d="M58,117.7c-23.5,0-41-11.8-41-40V20.4h28.5v57.7c0,10.6,4.9,16.1,12.9,16.1c8.6,0,12.8-5.8,12.8-15.9v-58h28.5v57.3
		C99.8,105.6,81.3,117.7,58,117.7z"/>
	<path d="M171.5,116.3l-31.4-50.1v50.1h-26.4V20.4h28.1l28.6,45.9V20.4h26.4v95.9H171.5z"/>
	<path d="M212.2,116.3V20.4h28.5v95.9H212.2z"/>
	<path d="M299.3,118.1c-27.9,0-46.4-20-46.4-49.6c0-29.8,18.5-49.9,46.7-49.9c28.1,0,46.4,20,46.4,49.6S327.5,118.1,299.3,118.1z
		 M299.4,40.1c-11.7,0-18.2,11-18.2,28.2s6.5,28.2,18.2,28.2s18.2-11,18.2-28.2S311.1,40.1,299.4,40.1z"/>
	<path d="M415.5,116.3l-31.4-50.1v50.1h-26.4V20.4h28.1l28.6,45.9V20.4h26.4v95.9H415.5z"/>
	<path class="st0" d="M517.1,117.3l-5.6-17.1h-30l-4.9,16.1h-27.5l33.1-96.4H514l31.8,92.9L517.1,117.3z M496.5,48.3l-9,30.3h17.8
		L496.5,48.3z"/>
	<path class="st0" d="M554.2,116.3V20.4h28.5v71.7h27.1l3.9,24.2H554.2z"/>
	<path class="st0" d="M622.8,116.3V20.4h28.5v71.7h27.1l3.9,24.2H622.8z"/>
	<path class="st0" d="M691.7,116.3V20.4h28.5v95.9H691.7z"/>
	<path class="st0" d="M735.7,116.3V20.4H799v22.1h-35.5v13.1h26.8l3.6,22.9h-30.4v15.7h36.7v22.1
		C800.2,116.3,735.7,116.3,735.7,116.3z"/>
	<path class="st0" d="M848.4,116.3H812V20.4h35.3c33.4,0,51,19.2,51,47.8C898.3,96.7,880.7,116.3,848.4,116.3z M846.2,41.8h-5.8
		v53.1h6c14.5,0,23.5-7.6,23.5-26.6C869.8,49.8,860.1,41.8,846.2,41.8z"/>
</g>
<g>
	<path d="M420.9,162.3c-8.7,0-14.5-6.7-14.5-16.5s5.9-16.6,14.7-16.6c3.6,0,6.6,1.1,9,2.7l-0.5,3.2c-2.5-1.8-5.3-3.1-8.5-3.1
		c-7,0-11.4,5.6-11.4,13.7c0,8.2,4.4,13.7,11.4,13.7c3.4,0,6.5-1.3,9.1-3.3l0.5,3.1C428.2,160.9,424.7,162.3,420.9,162.3z"/>
	<path d="M460.3,162l-4.1-10.7h-14l-3.9,10.3H435l12.6-32.2h3.3l12.5,31.8L460.3,162z M449.2,133.3l-5.8,15.2h11.8L449.2,133.3z"/>
	<path d="M476.6,148.2h-4v13.5h-3.2v-32h7.9c6.4,0,10.5,3.2,10.5,9C487.9,145,483.2,148.2,476.6,148.2z M477.1,132.5h-4.5v12.8h4.1
		c4.9,0,7.8-2.1,7.8-6.6C484.6,134.6,482,132.5,477.1,132.5z"/>
	<path d="M494.5,161.7v-32h3.2v32H494.5z"/>
	<path d="M517.5,132.6v29.1h-3.2v-29.1h-10.4v-2.9h23.5l0.5,2.9H517.5z"/>
	<path d="M552.2,162l-4.1-10.7h-14l-3.9,10.3H527l12.6-32.2h3.3l12.5,31.8L552.2,162z M541.1,133.3l-5.8,15.2H547L541.1,133.3z"/>
	<path d="M561.4,161.7v-32h3.2v29.1h12.3l0.5,2.9H561.4z"/>
	<path d="M606.5,162.3c-8.7,0-14.5-6.7-14.5-16.5s5.9-16.6,14.7-16.6c3.6,0,6.6,1.1,9,2.7l-0.5,3.2c-2.5-1.8-5.3-3.1-8.5-3.1
		c-7,0-11.4,5.6-11.4,13.7c0,8.2,4.4,13.7,11.4,13.7c3.4,0,6.5-1.3,9.1-3.3l0.5,3.1C613.8,160.9,610.3,162.3,606.5,162.3z"/>
	<path d="M634.7,162.3c-8.5,0-14.4-6.8-14.4-16.5c0-9.8,5.9-16.6,14.5-16.6s14.4,6.8,14.4,16.5S643.3,162.3,634.7,162.3z M634.8,132
		c-6.7,0-11.1,5.6-11.1,13.7c0,8.2,4.4,13.8,11.2,13.8s11.1-5.6,11.1-13.7C645.9,137.5,641.5,132,634.8,132z"/>
	<path d="M677.3,161.3L674,162l-10.4-14.5h-4.1v14.1h-3.2v-32h8.2c6.3,0,10.2,3.2,10.2,8.7c0,5-3.2,7.8-7.6,8.7L677.3,161.3z
		 M664.3,132.5h-4.8v12.3h4.3c4.7,0,7.7-2.1,7.7-6.2C671.5,134.7,669,132.5,664.3,132.5z"/>
	<path d="M689.8,148.2h-4v13.5h-3.2v-32h7.9c6.4,0,10.5,3.2,10.5,9C701,145,696.3,148.2,689.8,148.2z M690.3,132.5h-4.5v12.8h4.1
		c4.9,0,7.8-2.1,7.8-6.6C697.7,134.6,695.1,132.5,690.3,132.5z"/>
	<path d="M720.2,162.3c-8.5,0-14.4-6.8-14.4-16.5c0-9.8,5.9-16.6,14.5-16.6s14.4,6.8,14.4,16.5S728.8,162.3,720.2,162.3z M720.3,132
		c-6.7,0-11.1,5.6-11.1,13.7c0,8.2,4.4,13.8,11.2,13.8c6.7,0,11.1-5.6,11.1-13.7C731.4,137.5,727,132,720.3,132z"/>
	<path d="M762.8,161.3l-3.2,0.7l-10.4-14.5H745v14.1h-3.2v-32h8.2c6.3,0,10.2,3.2,10.2,8.7c0,5-3.2,7.8-7.6,8.7L762.8,161.3z
		 M749.8,132.5H745v12.3h4.3c4.7,0,7.7-2.1,7.7-6.2C757,134.7,754.5,132.5,749.8,132.5z"/>
	<path d="M790.9,162l-4.1-10.7h-14l-3.9,10.3h-3.2l12.6-32.2h3.3l12.5,31.8L790.9,162z M779.8,133.3l-5.8,15.2h11.8L779.8,133.3z"/>
	<path d="M806.8,132.6v29.1h-3.2v-29.1h-10.4v-2.9h23.5l0.5,2.9H806.8z"/>
	<path d="M823.2,161.7v-32h3.2v32H823.2z"/>
	<path d="M848.2,162.3c-8.5,0-14.4-6.8-14.4-16.5c0-9.8,5.9-16.6,14.5-16.6s14.4,6.8,14.4,16.5S856.8,162.3,848.2,162.3z M848.3,132
		c-6.7,0-11.1,5.6-11.1,13.7c0,8.2,4.5,13.8,11.2,13.8s11.1-5.6,11.1-13.7C859.4,137.5,855,132,848.3,132z"/>
	<path d="M891.5,161.7l-18.7-26.9v26.9h-3v-32h3l18.1,26.1v-26.1h3v32H891.5z"/>
</g>
</svg>
